<?xml version="1.0"?>
<svg xmlns="http://www.w3.org/2000/svg" height="512px" viewBox="0 -31 464 464" width="512px" class=""><g><path d="m413.710938 61h-95.710938v-20.507812c0-22.054688-17.847656-40.492188-39.898438-40.492188h-91.601562c-22.273438.214844-40.28125 18.21875-40.5 40.492188v20.507812h-95.710938c-27.570312 0-50.289062 22.324219-50.289062 49.898438v240.609374c0 27.570313 22.71875 50.492188 50.289062 50.492188h363.421876c27.570312 0 50.289062-22.921875 50.289062-50.492188v-240.609374c0-27.574219-22.71875-49.898438-50.289062-49.898438zm-247.710938-20.507812c.203125-11.234376 9.265625-20.292969 20.5-20.492188h91.601562c11.027344 0 19.898438 9.464844 19.898438 20.492188v20.507812h-132zm-115.710938 40.507812h363.421876c16.539062 0 30.289062 13.355469 30.289062 29.898438v92.46875l-132.027344 61.058593c-50.703125 23.492188-109.171875 23.492188-159.871094 0l-132.101562-61.0625v-92.464843c0-16.542969 13.75-29.898438 30.289062-29.898438zm363.421876 301h-363.421876c-16.539062 0-30.289062-13.949219-30.289062-30.492188v-126.109374l123.625 57.171874c56.042969 25.960938 120.667969 25.960938 176.714844 0l123.660156-57.171874v126.101562c0 16.550781-13.75 30.5-30.289062 30.5zm0 0" data-original="#000000" class="active-path" data-old_color="#6ec25b" fill="#6ec25b"/><path d="m232 223.410156c-9.675781-.011718-17.515625-7.851562-17.523438-17.523437 0-5.523438-4.480468-10-10-10-5.523437 0-10 4.476562-10 10 .019532 16.480469 10.773438 31.023437 26.523438 35.875v8.238281c0 5.523438 4.476562 10 10 10s10-4.476562 10-10v-7.6875c18.417969-4.550781 30.542969-22.128906 28.25-40.960938-2.292969-18.832031-18.28125-32.988281-37.25-32.988281-9.679688 0-17.523438-7.847656-17.523438-17.527343 0-9.675782 7.84375-17.523438 17.523438-17.523438s17.523438 7.847656 17.523438 17.523438c0 5.523437 4.480468 10 10 10 5.523437 0 10-4.476563 10-10-.023438-17.246094-11.78125-32.265626-28.523438-36.425782v-9.410156c0-5.523438-4.476562-10-10-10s-10 4.476562-10 10v9.960938c-17.757812 5.445312-28.859375 23.066406-26.105469 41.4375 2.753907 18.367187 18.53125 31.960937 37.105469 31.960937 9.683594-.082031 17.597656 7.710937 17.671875 17.394531.070313 9.683594-7.722656 17.589844-17.410156 17.65625-.085938 0-.171875 0-.261719 0zm0 0" data-original="#000000" class="active-path" data-old_color="#6ec25b" fill="#6ec25b"/></g> </svg>
