<?xml version="1.0"?>
<svg xmlns="http://www.w3.org/2000/svg" height="512px" viewBox="-56 0 496 496.002" width="512px" class=""><g><path d="m376 64.003906c-61.101562 0-119.519531-19-168.933594-54.9375l-10.363281-7.535156c-2.804687-2.042969-6.597656-2.042969-9.40625 0l-10.367187 7.535156c-49.410157 35.9375-107.824219 54.9375-168.929688 54.9375-4.414062 0-8 3.582032-8 8v151.535156c0 110.253907 64.273438 212.230469 163.738281 259.816407l24.808594 11.863281c1.09375.527344 2.277344.785156 3.453125.785156s2.359375-.257812 3.457031-.785156l24.808594-11.863281c99.464844-47.578125 163.734375-149.554688 163.734375-259.816407v-151.535156c0-4.417968-3.582031-8-8-8zm-8 159.535156c0 104.136719-60.695312 200.445313-154.648438 245.375l-21.351562 10.222657-21.351562-10.214844c-93.953126-44.9375-154.648438-141.246094-154.648438-245.382813v-143.640624c61.601562-1.59375 120.335938-21.519532 170.335938-57.894532l5.664062-4.113281 5.65625 4.113281c50.007812 36.375 108.746094 56.308594 170.34375 57.894532zm0 0" data-original="#000000" class="active-path" data-old_color="#6ec25b" fill="#6ec25b"/><path d="m120 208.003906v40h-8c-4.414062 0-8 3.582032-8 8v112c0 4.421875 3.585938 8 8 8h160c4.417969 0 8-3.578125 8-8v-112c0-4.417968-3.582031-8-8-8h-8v-40c0-39.699218-32.304688-72-72-72s-72 32.300782-72 72zm0 152v-40h32v-16h-32v-40h144v40h-32v16h32v40zm96-112h-48v-40c0-13.234375 10.769531-24 24-24 13.234375 0 24 10.765625 24 24zm32-40v40h-16v-40c0-22.058594-17.941406-40-40-40-22.054688 0-40 17.941406-40 40v40h-16v-40c0-30.882812 25.121094-56 56-56 30.882812 0 56 25.117188 56 56zm0 0" data-original="#000000" class="active-path" data-old_color="#6ec25b" fill="#6ec25b"/><path d="m192 288.003906c-13.230469 0-24 10.765625-24 24 0 13.230469 10.769531 24 24 24 13.234375 0 24-10.769531 24-24 0-13.234375-10.765625-24-24-24zm0 32c-4.40625 0-8-3.585937-8-8 0-4.417968 3.59375-8 8-8 4.410156 0 8 3.582032 8 8 0 4.414063-3.589844 8-8 8zm0 0" data-original="#000000" class="active-path" data-old_color="#6ec25b" fill="#6ec25b"/><path d="m184 80.003906h16v16h-16zm0 0" data-original="#000000" class="active-path" data-old_color="#6ec25b" fill="#6ec25b"/><path d="m216 80.003906h16v16h-16zm0 0" data-original="#000000" class="active-path" data-old_color="#6ec25b" fill="#6ec25b"/><path d="m248 80.003906h16v16h-16zm0 0" data-original="#000000" class="active-path" data-old_color="#6ec25b" fill="#6ec25b"/><path d="m152 80.003906h16v16h-16zm0 0" data-original="#000000" class="active-path" data-old_color="#6ec25b" fill="#6ec25b"/><path d="m120 80.003906h16v16h-16zm0 0" data-original="#000000" class="active-path" data-old_color="#6ec25b" fill="#6ec25b"/></g> </svg>
